<?xml version="1.0" encoding="UTF-8" standalone="no"?>
<!-- Created with Inkscape (http://www.inkscape.org/) -->

<svg
   xmlns:dc="http://purl.org/dc/elements/1.1/"
   xmlns:cc="http://creativecommons.org/ns#"
   xmlns:rdf="http://www.w3.org/1999/02/22-rdf-syntax-ns#"
   xmlns:svg="http://www.w3.org/2000/svg"
   xmlns="http://www.w3.org/2000/svg"
   xmlns:sodipodi="http://sodipodi.sourceforge.net/DTD/sodipodi-0.dtd"
   xmlns:inkscape="http://www.inkscape.org/namespaces/inkscape"
   width="24"
   height="24"
   viewBox="0 0 6.3499999 6.3500002"
   version="1.1"
   id="svg1124"
   inkscape:version="0.92.4 5da689c313, 2019-01-14"
   sodipodi:docname="knut.svg">
  <defs
     id="defs1118">
    <inkscape:path-effect
       effect="bspline"
       id="path-effect2028"
       is_visible="true"
       weight="33.333333"
       steps="2"
       helper_size="0"
       apply_no_weight="true"
       apply_with_weight="true"
       only_selected="false" />
    <inkscape:path-effect
       effect="bspline"
       id="path-effect1890"
       is_visible="true"
       weight="33.333333"
       steps="2"
       helper_size="0"
       apply_no_weight="true"
       apply_with_weight="true"
       only_selected="false" />
    <inkscape:path-effect
       effect="bspline"
       id="path-effect1886"
       is_visible="true"
       weight="33.333333"
       steps="2"
       helper_size="0"
       apply_no_weight="true"
       apply_with_weight="true"
       only_selected="false" />
    <inkscape:path-effect
       effect="spiro"
       id="path-effect1100-4-3"
       is_visible="true" />
    <inkscape:path-effect
       effect="spiro"
       id="path-effect1029-8-6"
       is_visible="true" />
    <inkscape:path-effect
       effect="spiro"
       id="path-effect1001-1-7"
       is_visible="true" />
    <inkscape:path-effect
       effect="spiro"
       id="path-effect1001-5"
       is_visible="true" />
    <inkscape:path-effect
       effect="spiro"
       id="path-effect951-35"
       is_visible="true" />
    <inkscape:path-effect
       effect="spiro"
       id="path-effect889-6"
       is_visible="true" />
    <inkscape:path-effect
       effect="spiro"
       id="path-effect951-3-2"
       is_visible="true" />
    <inkscape:path-effect
       effect="spiro"
       id="path-effect1100-4-3-7"
       is_visible="true" />
    <inkscape:path-effect
       effect="spiro"
       id="path-effect1029-8-6-5"
       is_visible="true" />
    <inkscape:path-effect
       effect="spiro"
       id="path-effect1001-1-7-3"
       is_visible="true" />
    <inkscape:path-effect
       effect="spiro"
       id="path-effect1001-5-5"
       is_visible="true" />
    <inkscape:path-effect
       effect="spiro"
       id="path-effect951-35-6"
       is_visible="true" />
    <inkscape:path-effect
       effect="spiro"
       id="path-effect889-6-2"
       is_visible="true" />
    <inkscape:path-effect
       effect="spiro"
       id="path-effect951-3-2-9"
       is_visible="true" />
    <inkscape:path-effect
       effect="spiro"
       id="path-effect1100-4-2-2"
       is_visible="true" />
    <inkscape:path-effect
       effect="spiro"
       id="path-effect1029-8-61-9"
       is_visible="true" />
    <inkscape:path-effect
       effect="spiro"
       id="path-effect1001-1-8-3"
       is_visible="true" />
    <inkscape:path-effect
       effect="spiro"
       id="path-effect1001-7-1"
       is_visible="true" />
    <inkscape:path-effect
       effect="spiro"
       id="path-effect951-9-9"
       is_visible="true" />
    <inkscape:path-effect
       effect="spiro"
       id="path-effect889-2-4"
       is_visible="true" />
    <inkscape:path-effect
       effect="spiro"
       id="path-effect951-3-0-7"
       is_visible="true" />
  </defs>
  <sodipodi:namedview
     id="base"
     pagecolor="#ffffff"
     bordercolor="#666666"
     borderopacity="1.0"
     inkscape:pageopacity="0.0"
     inkscape:pageshadow="2"
     inkscape:zoom="22.627417"
     inkscape:cx="23.547382"
     inkscape:cy="9.6416414"
     inkscape:document-units="px"
     inkscape:current-layer="layer1"
     showgrid="false"
     units="px"
     inkscape:window-width="2560"
     inkscape:window-height="1355"
     inkscape:window-x="0"
     inkscape:window-y="48"
     inkscape:window-maximized="1"
     inkscape:snap-bbox="true"
     inkscape:bbox-paths="true"
     inkscape:snap-bbox-edge-midpoints="true"
     inkscape:snap-bbox-midpoints="true"
     inkscape:bbox-nodes="true" />
  <metadata
     id="metadata1121">
    <rdf:RDF>
      <cc:Work
         rdf:about="">
        <dc:format>image/svg+xml</dc:format>
        <dc:type
           rdf:resource="http://purl.org/dc/dcmitype/StillImage" />
        <dc:title></dc:title>
      </cc:Work>
    </rdf:RDF>
  </metadata>
  <g
     inkscape:label="Ebene 1"
     inkscape:groupmode="layer"
     id="layer1"
     transform="translate(0,-290.64999)">
    <path
       style="fill:#000000;stroke-width:0.00083317"
       d="m 2.3326742,296.47097 c -0.05672,-0.002 -0.09882,-0.004 -0.147471,-0.009 -0.154636,-0.0154 -0.309022,-0.0506 -0.453296,-0.10347 -0.01617,-0.006 -0.02284,-0.01 -0.03012,-0.0163 -0.02837,-0.0265 -0.02338,-0.0707 0.01026,-0.091 0.01017,-0.006 0.0185,-0.008 0.03866,-0.01 0.115826,-0.008 0.227724,-0.0422 0.325769,-0.10027 0.0276,-0.0163 0.05946,-0.0387 0.08252,-0.058 0.05299,-0.0442 0.09125,-0.091 0.117423,-0.14352 0.0182,-0.0365 0.0283,-0.071 0.03347,-0.11441 0.0015,-0.0122 0.0015,-0.0535 2e-5,-0.0667 -0.0055,-0.0499 -0.02114,-0.0961 -0.04697,-0.13893 -0.02252,-0.0373 -0.05483,-0.0735 -0.07798,-0.0872 -0.0221,-0.0131 -0.04364,-0.0102 -0.07389,0.01 -0.02653,0.0177 -0.07347,0.0605 -0.11437,0.10408 -0.108217,0.11543 -0.234357,0.21318 -0.375917,0.29133 -0.03739,0.0206 -0.108113,0.055 -0.120029,0.0583 -0.0083,0.002 -0.02353,0.002 -0.03163,-3.6e-4 -0.01202,-0.004 -0.02157,-0.01 -0.02955,-0.0193 -0.0051,-0.006 -0.01101,-0.018 -0.01253,-0.0254 -0.0028,-0.0137 -0.0062,-0.16661 -0.0062,-0.2762 0,-0.30639 0.01971,-0.6218 0.05753,-0.92065 0.04649,-0.3674 0.118659,-0.66879 0.222247,-0.92815 0.127422,-0.31904 0.299879,-0.57309 0.532548,-0.78452 0.04435,-0.0403 0.09003,-0.0779 0.147054,-0.12088 0.05145,-0.0388 0.09762,-0.0819 0.126059,-0.11758 0.03988,-0.0501 0.05919,-0.0993 0.05739,-0.14638 -7.21e-4,-0.0198 -0.004,-0.0349 -0.01228,-0.0564 -0.0053,-0.0139 -0.01112,-0.0333 -0.01246,-0.0416 -6.01e-4,-0.004 -8.41e-4,-0.0106 -6.01e-4,-0.0171 3.61e-4,-0.009 7.21e-4,-0.0117 0.0027,-0.017 0.0066,-0.0178 0.01974,-0.0384 0.03369,-0.0528 0.02374,-0.0245 0.05628,-0.0409 0.129779,-0.0654 0.05686,-0.019 0.100211,-0.0309 0.183152,-0.0505 0.0585,-0.0138 0.08264,-0.0206 0.112062,-0.0314 0.0515,-0.019 0.1057418,-0.0498 0.1462208,-0.083 0.02529,-0.0207 0.05438,-0.0503 0.07041,-0.0717 0.01166,-0.0155 0.01662,-0.0279 0.01665,-0.0415 3.5e-5,-0.0258 -0.01913,-0.0489 -0.04571,-0.0548 -0.0078,-0.002 -0.02137,-0.002 -0.02787,-8e-5 -0.01189,0.003 -0.01658,0.006 -0.03812,0.027 -0.01705,0.0162 -0.03233,0.0289 -0.05146,0.0426 -0.06825,0.0488 -0.1557248,0.0919 -0.2696588,0.13295 -0.130184,0.0469 -0.249679,0.07 -0.385517,0.0747 -0.08119,0.003 -0.132968,-0.005 -0.216032,-0.034 -0.06775,-0.0234 -0.125751,-0.0486 -0.157703,-0.0685 -0.04068,-0.0253 -0.07049,-0.0565 -0.08895,-0.093 -0.0125,-0.0247 -0.0184,-0.0472 -0.0193,-0.0737 -0.0017,-0.0506 0.01803,-0.0942 0.05766,-0.12735 0.02548,-0.0213 0.05963,-0.0365 0.101465,-0.0451 0.01112,-0.002 0.03475,-0.005 0.05975,-0.008 0.03904,-0.004 0.05564,-0.007 0.07509,-0.0124 0.08013,-0.0236 0.153354,-0.078 0.235334,-0.17471 0.02448,-0.0289 0.04067,-0.0492 0.08785,-0.11035 0.07824,-0.10135 0.109558,-0.13843 0.156989,-0.18583 0.03596,-0.0359 0.06658,-0.0621 0.105362,-0.0899 0.09717,-0.0698 0.2073098,-0.11704 0.3204348,-0.13739 0.06944,-0.0125 0.142481,-0.0145 0.214125,-0.006 0.10441,0.0126 0.20702,0.0503 0.291193,0.10702 0.03728,0.0251 0.06501,0.0481 0.0992,0.0824 0.04189,0.0419 0.07267,0.0813 0.102291,0.13061 0.06001,0.1 0.09399,0.21341 0.102698,0.34271 0.0012,0.0172 6.01e-4,0.0515 -0.0013,0.0741 -0.01507,0.1834 -0.08606,0.34654 -0.213542,0.49074 -0.01452,0.0164 -0.05907,0.0612 -0.076,0.0764 -0.09474,0.0849 -0.20528,0.15427 -0.330987,0.20762 -0.04725,0.0201 -0.09468,0.0368 -0.148058,0.0522 -0.02114,0.006 -0.02526,0.008 -0.03423,0.0171 -0.01106,0.011 -0.01579,0.0222 -0.01579,0.0375 0,0.009 0.0015,0.0151 0.0058,0.0238 0.0077,0.0157 0.02262,0.0263 0.0405,0.0287 0.0091,0.001 0.01501,2.4e-4 0.03611,-0.006 0.158611,-0.0454 0.309324,-0.11979 0.436795,-0.21554 0.03521,-0.0265 0.07542,-0.0603 0.09922,-0.0835 0.0036,-0.003 0.0064,-0.006 0.0064,-0.006 0,2.4e-4 -0.0013,0.006 -0.0029,0.0119 -0.01059,0.042 -0.0053,0.0769 0.01873,0.12417 0.03806,0.0748 0.09642,0.14801 0.164158,0.20601 0.01343,0.0115 0.02712,0.0223 0.04458,0.0353 0.10812,0.0801 0.212477,0.17647 0.30367,0.28048 0.14366,0.16384 0.261343,0.35478 0.354275,0.57479 0.13518,0.32004 0.219566,0.6997 0.266852,1.2006 0.02083,0.22062 0.03108,0.42649 0.03263,0.65529 8.41e-4,0.12046 -0.0026,0.3013 -0.006,0.31785 -0.0014,0.007 -0.0074,0.0193 -0.01211,0.025 -0.0077,0.009 -0.01787,0.016 -0.02995,0.0197 -0.0082,0.003 -0.02337,0.003 -0.03166,3.6e-4 -0.01203,-0.003 -0.0783,-0.0355 -0.118311,-0.0574 -0.129457,-0.0709 -0.247999,-0.16024 -0.350785,-0.26442 -0.01997,-0.0202 -0.03429,-0.0354 -0.05388,-0.0569 -0.01988,-0.0219 -0.08424,-0.0861 -0.0919,-0.0917 -0.02013,-0.0147 -0.03497,-0.016 -0.05517,-0.005 -0.01293,0.007 -0.02388,0.0167 -0.04052,0.0351 -0.02926,0.0323 -0.05405,0.066 -0.06576,0.0893 -0.01632,0.0325 -0.02732,0.0696 -0.03238,0.10907 -0.0019,0.0147 -0.0021,0.0567 -4.81e-4,0.0708 0.007,0.0581 0.02405,0.10491 0.05574,0.1533 0.04381,0.0669 0.114748,0.12906 0.200178,0.17543 0.09288,0.0504 0.196466,0.0803 0.303273,0.0875 0.0076,4.8e-4 0.01619,10e-4 0.01916,0.002 0.0194,0.004 0.03492,0.0161 0.0431,0.0336 0.008,0.0172 0.0065,0.0378 -0.0039,0.0538 -0.0049,0.007 -0.01413,0.0161 -0.02144,0.0199 -0.01092,0.006 -0.07377,0.0275 -0.116866,0.0405 -0.139712,0.042 -0.279838,0.0671 -0.425751,0.0763 -0.0703,0.004 -0.159176,0.005 -0.227455,3.6e-4 -0.08144,-0.005 -0.16257,-0.015 -0.232671,-0.0288 -0.117283,-0.023 -0.20905,-0.0581 -0.285143,-0.10892 -0.06756,-0.0451 -0.125912,-0.10604 -0.165391,-0.17261 -0.0038,-0.006 -0.0072,-0.012 -0.0075,-0.0124 -3.6e-4,-3.6e-4 -0.0022,0.002 -0.0042,0.005 -0.04441,0.0769 -0.109418,0.14306 -0.1882618,0.19164 -0.05571,0.0343 -0.123273,0.062 -0.19996,0.0819 -0.09157,0.0238 -0.212102,0.0403 -0.332019,0.0455 -0.02006,8.4e-4 -0.101148,0.002 -0.118309,10e-4 z m -0.210541,-0.99773 c 0.01137,-0.003 0.02344,-0.0107 0.03097,-0.0201 0.0092,-0.0115 0.06769,-0.12432 0.109347,-0.21106 0.243439,-0.5069 0.389463,-1.05992 0.428443,-1.6226 0.0057,-0.0827 0.01039,-0.19337 0.0087,-0.20584 -0.0034,-0.0245 -0.02062,-0.0439 -0.04493,-0.0504 -0.0071,-0.002 -0.02086,-0.002 -0.02869,-3e-5 -0.01888,0.005 -0.03638,0.0205 -0.04242,0.0386 -0.0028,0.009 -0.0036,0.0157 -0.0042,0.0406 -0.0027,0.11056 -0.01303,0.25086 -0.02757,0.37493 -0.0635,0.54187 -0.229959,1.07083 -0.487847,1.55026 -0.01574,0.0293 -0.01693,0.0325 -0.01697,0.0469 -3.5e-5,0.0162 0.0037,0.0274 0.01322,0.0389 0.01502,0.0182 0.03847,0.0257 0.06196,0.0198 z m 2.1354298,3.6e-4 c 0.0165,-0.004 0.03182,-0.0159 0.03956,-0.0315 0.0048,-0.01 0.006,-0.0151 0.006,-0.0276 -3.5e-5,-0.0144 -0.0012,-0.0177 -0.01696,-0.0469 -0.254114,-0.47257 -0.419606,-0.99322 -0.484944,-1.52568 -0.01614,-0.13149 -0.02762,-0.28159 -0.03047,-0.39825 -6.01e-4,-0.0255 -0.0014,-0.0335 -0.0042,-0.0418 -0.0061,-0.0183 -0.02355,-0.0342 -0.04245,-0.0387 -0.0076,-0.002 -0.02073,-0.002 -0.0283,10e-6 -0.01955,0.005 -0.03648,0.0202 -0.0428,0.0393 -0.0037,0.011 -0.0037,0.0181 -9.61e-4,0.0875 0.0266,0.66564 0.203167,1.32072 0.514497,1.90885 0.02774,0.0524 0.03048,0.0567 0.04066,0.0642 0.01521,0.0112 0.03187,0.0147 0.05041,0.0106 z m -1.026732,-0.0453 c 0.231514,-0.008 0.455025,-0.0578 0.671375,-0.1497 0.02222,-0.009 0.02788,-0.0127 0.03454,-0.0197 0.01316,-0.0139 0.01913,-0.0312 0.01827,-0.053 -4.81e-4,-0.0134 -0.0017,-0.0183 -0.0074,-0.0299 -0.0037,-0.008 -0.0052,-0.01 -0.01182,-0.0163 -0.0061,-0.006 -0.0089,-0.008 -0.01388,-0.0106 -0.0077,-0.004 -0.01371,-0.005 -0.02125,-0.005 -0.0081,0 -0.01307,0.001 -0.02749,0.008 -0.187007,0.0802 -0.381736,0.12801 -0.57697,0.1418 -0.04928,0.003 -0.05949,0.004 -0.121227,0.004 -0.05999,0 -0.06914,-2.4e-4 -0.115394,-0.003 -0.1952818,-0.0131 -0.3900298,-0.0604 -0.5778348,-0.14014 -0.01957,-0.008 -0.02403,-0.01 -0.03246,-0.01 -0.01356,0 -0.02403,0.005 -0.0351,0.0157 -0.0067,0.007 -0.0081,0.009 -0.01183,0.0163 -0.0057,0.0118 -0.0069,0.0166 -0.0074,0.0304 -4.81e-4,0.0134 4.8e-4,0.0202 0.0048,0.0312 0.0047,0.0123 0.01477,0.0247 0.02448,0.0304 0.0089,0.005 0.07361,0.0316 0.113356,0.0462 0.02704,0.01 0.08156,0.0281 0.109562,0.0365 0.157252,0.0471 0.316331,0.073 0.4799058,0.0779 0.02034,6e-4 0.08261,4.8e-4 0.103729,-2.4e-4 z m -0.03749,-0.38112 c 0.01958,-0.007 0.03417,-0.0223 0.0393,-0.0421 0.0019,-0.007 0.0019,-0.0212 -1.8e-5,-0.0283 -0.007,-0.0269 -0.03029,-0.045 -0.05785,-0.045 -0.02287,0 -0.04331,0.013 -0.05318,0.0337 -0.01641,0.0346 0.0033,0.0748 0.04092,0.0834 0.0081,0.002 0.02267,10e-4 0.03083,-0.002 z m -0.0041,-0.60201 c 0.01743,-0.004 0.03148,-0.0159 0.03918,-0.0321 0.0041,-0.009 0.0056,-0.0153 0.0056,-0.0254 0,-0.0101 -0.0015,-0.0167 -0.0056,-0.0254 -0.0096,-0.0202 -0.02824,-0.0325 -0.05094,-0.0335 -0.0075,-3.6e-4 -0.01041,-1.1e-4 -0.01605,10e-4 -0.01805,0.005 -0.03211,0.0159 -0.03985,0.0322 -0.0042,0.009 -0.0056,0.0154 -0.0056,0.0254 0,0.01 0.0015,0.0166 0.0056,0.0254 0.01208,0.0254 0.04056,0.0389 0.06766,0.0321 z m 0.0037,-0.60404 c 0.01607,-0.005 0.02837,-0.0163 0.03551,-0.0312 0.0041,-0.009 0.0056,-0.0154 0.0056,-0.0254 0,-0.0105 -0.0015,-0.017 -0.0061,-0.0263 -0.007,-0.0143 -0.01893,-0.0246 -0.03471,-0.0301 -0.0059,-0.002 -0.0078,-0.002 -0.01782,-0.002 -0.01022,-4e-5 -0.01193,2.4e-4 -0.01863,0.002 -0.03389,0.0111 -0.05046,0.0491 -0.03549,0.0812 0.007,0.0151 0.01944,0.0262 0.03484,0.0312 0.0088,0.003 0.0092,0.003 0.02093,0.003 0.008,-2.4e-4 0.01167,-7.2e-4 0.01583,-0.002 z m -0.2574488,-0.5249 c 0.0057,-0.002 0.06177,-0.0215 0.1245368,-0.0435 0.06277,-0.0219 0.114551,-0.0399 0.115072,-0.0399 8.41e-4,0 0.06,0.0206 0.214275,0.0746 0.01754,0.006 0.03401,0.0115 0.0366,0.012 0.0066,10e-4 0.01712,10e-4 0.02399,-3.6e-4 0.0032,-7.2e-4 0.0092,-0.003 0.01333,-0.005 0.01308,-0.007 0.02121,-0.0147 0.0275,-0.0276 0.0067,-0.0138 0.0063,-0.003 0.0061,-0.16664 l -2.4e-4,-0.1458 -0.0026,-0.007 c -0.0037,-0.0103 -0.0072,-0.0158 -0.0149,-0.0235 -0.0077,-0.008 -0.016,-0.0125 -0.02669,-0.0155 -0.0078,-0.002 -0.0207,-0.003 -0.02786,-8.4e-4 -0.0025,6e-4 -0.04189,0.0142 -0.08748,0.0301 -0.0456,0.0159 -0.100692,0.0352 -0.122436,0.0428 l -0.03953,0.0138 -0.122518,-0.0428 c -0.06738,-0.0235 -0.1245768,-0.0433 -0.1270978,-0.0439 -0.0071,-0.002 -0.02006,-10e-4 -0.02775,7.2e-4 -0.02011,0.006 -0.03459,0.0192 -0.04171,0.0391 l -0.0026,0.007 -2.4e-4,0.14581 c -2.4e-4,0.16404 -7.21e-4,0.1528 0.006,0.16663 0.0061,0.0125 0.01486,0.0213 0.02752,0.0276 0.01008,0.005 0.01594,0.006 0.02833,0.006 0.0092,-2.4e-4 0.01079,-6e-4 0.02041,-0.004 z M 3.19544,291.812 c 0.03122,-0.007 0.05702,-0.0264 0.07128,-0.0543 0.02051,-0.0402 0.01223,-0.0891 -0.0204,-0.12053 -0.03995,-0.0385 -0.102608,-0.0385 -0.142394,-2.4e-4 -0.02434,0.0235 -0.03559,0.0564 -0.03059,0.0896 0.0065,0.0431 0.04077,0.0783 0.08336,0.0858 0.0028,4.9e-4 0.0059,0.001 0.0071,0.001 0.0044,8.4e-4 0.0257,-2.4e-4 0.03166,-0.002 z"
       id="path3199"
       inkscape:connector-curvature="0" />
  </g>
</svg>
