<?xml version="1.0" encoding="UTF-8" standalone="no"?>
<!-- Created with Inkscape (http://www.inkscape.org/) -->

<svg
   xmlns:dc="http://purl.org/dc/elements/1.1/"
   xmlns:cc="http://creativecommons.org/ns#"
   xmlns:rdf="http://www.w3.org/1999/02/22-rdf-syntax-ns#"
   xmlns:svg="http://www.w3.org/2000/svg"
   xmlns="http://www.w3.org/2000/svg"
   xmlns:sodipodi="http://sodipodi.sourceforge.net/DTD/sodipodi-0.dtd"
   xmlns:inkscape="http://www.inkscape.org/namespaces/inkscape"
   width="29.210955mm"
   height="43.242611mm"
   viewBox="0 0 29.210955 43.242611"
   version="1.1"
   id="svg1019"
   inkscape:version="0.92.4 5da689c313, 2019-01-14"
   sodipodi:docname="knut.svg">
  <defs
     id="defs1013">
    <inkscape:path-effect
       effect="spiro"
       id="path-effect951-3-0"
       is_visible="true" />
    <inkscape:path-effect
       effect="spiro"
       id="path-effect889-2"
       is_visible="true" />
    <inkscape:path-effect
       effect="spiro"
       id="path-effect951-9"
       is_visible="true" />
    <inkscape:path-effect
       effect="spiro"
       id="path-effect1001-7"
       is_visible="true" />
    <inkscape:path-effect
       effect="spiro"
       id="path-effect1001-1-8"
       is_visible="true" />
    <inkscape:path-effect
       effect="spiro"
       id="path-effect1029-8-61"
       is_visible="true" />
    <inkscape:path-effect
       effect="spiro"
       id="path-effect1100-4-2"
       is_visible="true" />
  </defs>
  <sodipodi:namedview
     id="base"
     pagecolor="#ffffff"
     bordercolor="#666666"
     borderopacity="1.0"
     inkscape:pageopacity="0.0"
     inkscape:pageshadow="2"
     inkscape:zoom="5.6"
     inkscape:cx="46.630379"
     inkscape:cy="70.28973"
     inkscape:document-units="mm"
     inkscape:current-layer="layer1"
     showgrid="false"
     fit-margin-top="0"
     fit-margin-left="0"
     fit-margin-right="0"
     fit-margin-bottom="0"
     inkscape:window-width="2560"
     inkscape:window-height="1355"
     inkscape:window-x="0"
     inkscape:window-y="48"
     inkscape:window-maximized="1" />
  <metadata
     id="metadata1016">
    <rdf:RDF>
      <cc:Work
         rdf:about="">
        <dc:format>image/svg+xml</dc:format>
        <dc:type
           rdf:resource="http://purl.org/dc/dcmitype/StillImage" />
        <dc:title></dc:title>
      </cc:Work>
    </rdf:RDF>
  </metadata>
  <g
     inkscape:label="Ebene 1"
     inkscape:groupmode="layer"
     id="layer1"
     transform="translate(276.165,-3.235833)">
    <g
       transform="translate(-250.72248,-114.92341)"
       id="g3213">
      <path
         transform="matrix(-0.98767559,0,0,0.98767559,68.557614,11.901655)"
         sodipodi:nodetypes="csccssccc"
         inkscape:connector-curvature="0"
         d="m 75.876707,126.48625 c -0.167798,2.76388 -0.547248,5.51488 -1.13393,8.22098 -0.859697,3.96539 -2.273885,8.00839 -5.24442,10.77232 -0.98619,0.9176 -2.124613,1.6712 -3.354538,2.22061 -0.112881,-3.13759 0.0136,-6.28376 0.377975,-9.40216 0.502676,-4.30198 1.517678,-8.68547 4.063244,-12.18973 0.939484,-1.29331 2.074498,-2.44431 3.354537,-3.40179 0.246936,-0.17733 0.481364,-0.37208 0.700967,-0.58232 0.518901,-0.49677 0.954295,-1.08056 1.282474,-1.71957"
         inkscape:original-d="m 75.876707,126.48625 c -0.377714,2.74006 0.613945,4.63047 -1.13393,8.22098 -1.747874,3.59051 -4.126505,10.03239 -5.24442,10.77232 -1.117915,0.73994 -2.220343,1.48014 -3.354538,2.22061 0.126256,-3.13432 -0.976705,-5.33865 0.377975,-9.40216 1.35468,-4.06351 2.9448,-11.05554 4.063244,-12.18973 1.118444,-1.13419 2.236623,-2.26812 3.354537,-3.40179 -0.03579,0.35205 1.713726,-1.54472 0.700967,-0.58232 -10.952475,10.40782 1.251244,-1.27887 1.282474,-1.71957"
         inkscape:path-effect="#path-effect951-3-0"
         style="fill:none;stroke:#000000;stroke-width:1.01247823;stroke-linecap:round;stroke-linejoin:round;stroke-miterlimit:4;stroke-dasharray:none;stroke-opacity:1"
         id="path949-5-2" />
      <path
         transform="matrix(0.98767559,0,0,0.98767559,-90.231704,11.901657)"
         sodipodi:nodetypes="cccccccccscccc"
         inkscape:original-d="m 80.385362,115.59081 c -0.267004,0.267 -0.04886,0.55707 -0.872679,0.8018 -0.823815,0.24474 -1.470247,0.73526 -2.472243,0.735 -1.001996,-2.7e-4 -2.227511,0.22299 -3.00678,0 -0.779272,-0.22299 -1.93797,-0.1111 -2.33861,-0.66818 -0.40064,-0.55707 -1.782062,-1.44744 -1.202714,-1.67043 0.57935,-0.22299 0.84609,-0.0443 1.737254,-0.66817 0.891162,-0.6239 1.981983,-1.04655 2.672694,-1.87089 0.690711,-0.82435 -0.178443,-2.13789 2.071338,-2.47224 2.249784,-0.33436 4.499303,-0.66844 6.748558,-1.00227 2.249255,-0.33383 1.425702,1.60336 2.138156,2.40543 0.712454,0.80208 0.312079,2.18244 0.467722,3.27405 0.155642,1.09162 -0.645637,2.11562 -0.968852,3.17383 -0.323216,1.0582 -3.34769,2.42743 -4.973844,3.64155"
         inkscape:path-effect="#path-effect889-2"
         inkscape:connector-curvature="0"
         id="path887-3"
         d="m 80.385362,115.59081 c -0.241033,0.31554 -0.537903,0.58829 -0.872679,0.8018 -0.731285,0.46638 -1.610637,0.63537 -2.472243,0.735 -0.998572,0.11547 -2.012805,0.14997 -3.00678,0 -0.803538,-0.12124 -1.585878,-0.36196 -2.33861,-0.66818 -0.358012,-0.14564 -0.720777,-0.31391 -0.97981,-0.60076 -0.129516,-0.14343 -0.230068,-0.31557 -0.274975,-0.50353 -0.04491,-0.18796 -0.03177,-0.39202 0.05207,-0.56614 0.07041,-0.14623 0.187901,-0.26693 0.324136,-0.35514 0.136235,-0.0882 0.29082,-0.14523 0.448701,-0.18284 0.315761,-0.0752 0.644633,-0.0745 0.964417,-0.13019 0.547485,-0.0953 1.057192,-0.3552 1.499177,-0.69206 0.441985,-0.33686 0.820654,-0.74951 1.173517,-1.17883 0.683371,-0.83143 1.283832,-1.73868 2.071338,-2.47224 0.891089,-0.83005 2.01745,-1.41654 3.219093,-1.61421 1.201644,-0.19767 2.474491,0.004 3.529465,0.61194 0.94509,0.54496 1.699253,1.40666 2.138156,2.40543 0.448296,1.02014 0.569486,2.16441 0.467722,3.27405 -0.101764,1.10965 -0.42374,2.20196 -0.968852,3.17383 -1.036509,1.84796 -2.899113,3.21165 -4.973844,3.64155"
         style="fill:none;stroke:#000000;stroke-width:1.01247823;stroke-linecap:round;stroke-linejoin:round;stroke-miterlimit:4;stroke-dasharray:none;stroke-opacity:1" />
      <path
         transform="matrix(0.98767559,0,0,0.98767559,-90.231704,11.901657)"
         sodipodi:nodetypes="csccsscccc"
         inkscape:connector-curvature="0"
         d="m 75.876707,126.48625 c -0.167798,2.76388 -0.547248,5.51488 -1.13393,8.22098 -0.859697,3.96539 -2.273885,8.00839 -5.24442,10.77232 -0.98619,0.9176 -2.124613,1.6712 -3.354538,2.22061 -0.112881,-3.13759 0.0136,-6.28376 0.377975,-9.40216 0.502676,-4.30198 1.517678,-8.68547 4.063244,-12.18973 0.939484,-1.29331 2.074498,-2.44431 3.354537,-3.40179 0.244862,-0.18006 0.479062,-0.37462 0.700967,-0.58232 0.275983,-0.25831 0.534518,-0.53903 0.734032,-0.8601 0.199514,-0.32107 0.338662,-0.68516 0.362401,-1.06242 0.03377,-0.53671 -0.178521,-1.08403 -0.565364,-1.45759"
         inkscape:original-d="m 75.876707,126.48625 c -0.377714,2.74006 0.613945,4.63047 -1.13393,8.22098 -1.747874,3.59051 -4.126505,10.03239 -5.24442,10.77232 -1.117915,0.73994 -2.220343,1.48014 -3.354538,2.22061 0.126256,-3.13432 -0.976705,-5.33865 0.377975,-9.40216 1.35468,-4.06351 2.9448,-11.05554 4.063244,-12.18973 1.118444,-1.13419 2.236623,-2.26812 3.354537,-3.40179 -0.03579,0.35205 1.713726,-1.54472 0.700967,-0.58232 -10.952475,10.40782 1.065203,-1.48182 1.096433,-1.92252 0.03123,-0.44071 -0.01389,-0.78064 -0.565364,-1.45759"
         inkscape:path-effect="#path-effect951-9"
         style="fill:none;stroke:#000000;stroke-width:1.01247823;stroke-linecap:round;stroke-linejoin:round;stroke-miterlimit:4;stroke-dasharray:none;stroke-opacity:1"
         id="path949-7" />
      <circle
         r="0.85680854"
         cy="122.58804"
         cx="-10.837046"
         id="path959-5"
         style="opacity:1;fill:#000000;fill-opacity:1;fill-rule:evenodd;stroke:none;stroke-width:0.26499999;stroke-linecap:round;stroke-linejoin:round;stroke-miterlimit:4;stroke-dasharray:none;stroke-dashoffset:0;stroke-opacity:1;paint-order:normal" />
      <circle
         r="0.4938378"
         cy="139.85114"
         cx="-10.837046"
         id="path959-3-9"
         style="opacity:1;fill:#000000;fill-opacity:1;fill-rule:evenodd;stroke:none;stroke-width:0.26499999;stroke-linecap:round;stroke-linejoin:round;stroke-miterlimit:4;stroke-dasharray:none;stroke-dashoffset:0;stroke-opacity:1;paint-order:normal" />
      <circle
         r="0.4938378"
         cy="144.87277"
         cx="-10.837046"
         id="path959-3-2-2"
         style="opacity:1;fill:#000000;fill-opacity:1;fill-rule:evenodd;stroke:none;stroke-width:0.26499999;stroke-linecap:round;stroke-linejoin:round;stroke-miterlimit:4;stroke-dasharray:none;stroke-dashoffset:0;stroke-opacity:1;paint-order:normal" />
      <circle
         r="0.4938378"
         cy="149.89442"
         cx="-10.837046"
         id="path959-3-7-2"
         style="opacity:1;fill:#000000;fill-opacity:1;fill-rule:evenodd;stroke:none;stroke-width:0.26499999;stroke-linecap:round;stroke-linejoin:round;stroke-miterlimit:4;stroke-dasharray:none;stroke-dashoffset:0;stroke-opacity:1;paint-order:normal" />
      <path
         sodipodi:nodetypes="ccccccc"
         inkscape:connector-curvature="0"
         id="path997-8"
         d="m -13.01862,133.20131 v 2.28656 l 2.181575,-0.76219 2.1815769,0.76219 v -2.28656 l -2.1815769,0.76218 z"
         style="fill:#000000;fill-opacity:1;stroke:#000000;stroke-width:1;stroke-linecap:round;stroke-linejoin:round;stroke-miterlimit:4;stroke-dasharray:none;stroke-opacity:1" />
      <path
         transform="matrix(0.98767559,0,0,0.93618635,-88.892011,20.419447)"
         inkscape:original-d="m 66.972655,149.94703 c -0.07061,-0.77849 2.150005,-0.90923 3.283667,-1.1137 1.133666,-0.20447 1.19719,-1.44917 1.795389,-2.17336 0.598196,-0.72419 -0.388644,-2.33288 -0.583361,-3.49892"
         inkscape:path-effect="#path-effect1001-7"
         inkscape:connector-curvature="0"
         id="path999-9"
         d="m 66.972655,149.94703 c 1.16849,-0.0637 2.317503,-0.45343 3.283667,-1.1137 0.78848,-0.53884 1.467415,-1.27643 1.795389,-2.17336 0.212322,-0.58065 0.271425,-1.21656 0.16975,-1.82639 -0.101676,-0.60984 -0.363892,-1.19217 -0.753111,-1.67253"
         style="fill:none;stroke:#000000;stroke-width:1.03994811;stroke-linecap:round;stroke-linejoin:round;stroke-miterlimit:4;stroke-dasharray:none;stroke-opacity:1"
         sodipodi:nodetypes="cscc" />
      <path
         transform="matrix(-0.98767559,0,0,0.93618635,67.217914,20.419447)"
         inkscape:original-d="m 66.972655,149.94703 c -0.07061,-0.77849 2.150005,-0.90923 3.283667,-1.1137 1.133666,-0.20447 1.19719,-1.44917 1.795389,-2.17336 0.598196,-0.72419 -0.388644,-2.33288 -0.583361,-3.49892"
         inkscape:path-effect="#path-effect1001-1-8"
         inkscape:connector-curvature="0"
         id="path999-6-7"
         d="m 66.972655,149.94703 c 1.16849,-0.0637 2.317503,-0.45343 3.283667,-1.1137 0.78848,-0.53884 1.467415,-1.27643 1.795389,-2.17336 0.212322,-0.58065 0.271425,-1.21656 0.16975,-1.82639 -0.101676,-0.60984 -0.363892,-1.19217 -0.753111,-1.67253"
         style="fill:none;stroke:#000000;stroke-width:1.03994811;stroke-linecap:round;stroke-linejoin:round;stroke-miterlimit:4;stroke-dasharray:none;stroke-opacity:1"
         sodipodi:nodetypes="cscc" />
      <path
         sodipodi:nodetypes="cscsc"
         inkscape:connector-curvature="0"
         d="m 77.296131,149.11681 c 0.788272,-0.2078 1.516587,-0.63817 2.078868,-1.22842 0.458716,-0.48153 0.806921,-1.06772 1.010361,-1.70089 0.20344,0.63317 0.551646,1.21936 1.010362,1.70089 0.562281,0.59025 1.290596,1.02062 2.078868,1.22842"
         inkscape:original-d="m 77.296131,149.11681 c 0.693221,-0.40974 1.386176,-0.81921 2.078868,-1.22842 0.692692,-0.40921 0.673838,-1.13419 1.010361,-1.70089 0.336524,0.5667 0.31767,1.29168 1.010362,1.70089 0.692692,0.40921 1.385647,0.81868 2.078868,1.22842"
         inkscape:path-effect="#path-effect1029-8-61"
         style="fill:none;stroke:#000000;stroke-width:1.27314997;stroke-linecap:round;stroke-linejoin:round;stroke-miterlimit:4;stroke-dasharray:none;stroke-opacity:1"
         transform="matrix(-0.62463532,0,0,0.98767559,39.374494,13.491761)"
         id="path1027-0-3" />
      <path
         sodipodi:nodetypes="ccccc"
         inkscape:connector-curvature="0"
         d="m 73.067523,141.55729 c 1.718501,0.62721 3.517599,1.0332 5.338913,1.2048 0.657781,0.062 1.318429,0.0935 1.979123,0.0945 0.660694,-9.8e-4 1.321341,-0.0325 1.979122,-0.0945 1.821314,-0.1716 3.620412,-0.57759 5.338913,-1.2048"
         inkscape:original-d="m 73.067523,141.55729 c 1.779902,0.40133 3.55954,0.80293 5.338913,1.2048 1.779373,0.40186 1.319549,0.0627 1.979123,0.0945 0.659573,-0.0318 0.199749,0.30736 1.979122,-0.0945 1.779373,-0.40187 3.559011,-0.80347 5.338913,-1.2048"
         inkscape:path-effect="#path-effect1100-4-2"
         style="fill:none;stroke:#000000;stroke-width:1.1073885;stroke-linecap:round;stroke-linejoin:round;stroke-miterlimit:4;stroke-dasharray:none;stroke-opacity:1"
         transform="matrix(-0.82563052,0,0,0.98767559,55.531724,11.901657)"
         id="path1098-8-61" />
    </g>
  </g>
</svg>
