<?xml version="1.0" encoding="UTF-8" standalone="no"?>
<!-- Created with Inkscape (http://www.inkscape.org/) -->

<svg
   xmlns:dc="http://purl.org/dc/elements/1.1/"
   xmlns:cc="http://creativecommons.org/ns#"
   xmlns:rdf="http://www.w3.org/1999/02/22-rdf-syntax-ns#"
   xmlns:svg="http://www.w3.org/2000/svg"
   xmlns="http://www.w3.org/2000/svg"
   xmlns:xlink="http://www.w3.org/1999/xlink"
   xmlns:sodipodi="http://sodipodi.sourceforge.net/DTD/sodipodi-0.dtd"
   xmlns:inkscape="http://www.inkscape.org/namespaces/inkscape"
   width="240"
   height="240"
   viewBox="0 0 63.499998 63.500002"
   version="1.1"
   id="svg904"
   inkscape:version="0.92.4 5da689c313, 2019-01-14"
   sodipodi:docname="knut-app.svg">
  <defs
     id="defs898">
    <linearGradient
       inkscape:collect="always"
       id="linearGradient838">
      <stop
         style="stop-color:#505050;stop-opacity:1"
         offset="0"
         id="stop834" />
      <stop
         style="stop-color:#212121;stop-opacity:1"
         offset="1"
         id="stop836" />
    </linearGradient>
    <filter
       style="color-interpolation-filters:sRGB;"
       inkscape:label="Drop Shadow"
       id="filter2063">
      <feFlood
         flood-opacity="1"
         flood-color="rgb(0,0,0)"
         result="flood"
         id="feFlood2053" />
      <feComposite
         in="flood"
         in2="SourceGraphic"
         operator="in"
         result="composite1"
         id="feComposite2055" />
      <feGaussianBlur
         in="composite1"
         stdDeviation="1"
         result="blur"
         id="feGaussianBlur2057" />
      <feOffset
         dx="1"
         dy="1"
         result="offset"
         id="feOffset2059" />
      <feComposite
         in="SourceGraphic"
         in2="offset"
         operator="over"
         result="composite2"
         id="feComposite2061" />
    </filter>
    <linearGradient
       inkscape:collect="always"
       xlink:href="#linearGradient838"
       id="linearGradient840"
       x1="0"
       y1="233.49998"
       x2="63.5"
       y2="297"
       gradientUnits="userSpaceOnUse" />
  </defs>
  <sodipodi:namedview
     id="base"
     pagecolor="#ffffff"
     bordercolor="#666666"
     borderopacity="1.0"
     inkscape:pageopacity="0.0"
     inkscape:pageshadow="2"
     inkscape:zoom="0.9899495"
     inkscape:cx="79.775304"
     inkscape:cy="124.91651"
     inkscape:document-units="mm"
     inkscape:current-layer="layer1"
     showgrid="false"
     units="px"
     inkscape:snap-bbox="true"
     inkscape:bbox-paths="true"
     inkscape:snap-bbox-edge-midpoints="true"
     inkscape:bbox-nodes="true"
     inkscape:snap-bbox-midpoints="true"
     inkscape:object-paths="true"
     inkscape:snap-intersection-paths="true"
     inkscape:snap-midpoints="true"
     inkscape:snap-smooth-nodes="true"
     inkscape:snap-object-midpoints="true"
     inkscape:snap-center="true"
     inkscape:snap-text-baseline="true"
     inkscape:snap-page="true"
     inkscape:window-width="2560"
     inkscape:window-height="1355"
     inkscape:window-x="0"
     inkscape:window-y="48"
     inkscape:window-maximized="1" />
  <metadata
     id="metadata901">
    <rdf:RDF>
      <cc:Work
         rdf:about="">
        <dc:format>image/svg+xml</dc:format>
        <dc:type
           rdf:resource="http://purl.org/dc/dcmitype/StillImage" />
        <dc:title />
      </cc:Work>
    </rdf:RDF>
  </metadata>
  <g
     inkscape:label="Ebene 1"
     inkscape:groupmode="layer"
     id="layer1"
     transform="translate(0,-233.49999)">
    <circle
       style="opacity:1;fill:url(#linearGradient840);fill-opacity:1;stroke:none;stroke-width:0.26458332;stroke-linecap:round;stroke-linejoin:round;stroke-miterlimit:4;stroke-dasharray:none;stroke-opacity:1;paint-order:normal"
       id="path832"
       cx="31.75"
       cy="265.24997"
       r="31.75" />
    <path
       style="fill:#fafafa;fill-opacity:1;stroke-width:0.00644004;filter:url(#filter2063)"
       d="m 24.664524,287.32552 c -0.47644,-0.014 -0.830113,-0.0359 -1.238758,-0.0766 -1.298936,-0.12931 -2.595784,-0.42535 -3.807686,-0.86921 -0.135852,-0.0497 -0.191843,-0.0801 -0.252969,-0.13707 -0.238301,-0.22214 -0.196363,-0.59412 0.08616,-0.76426 0.08545,-0.0515 0.155374,-0.0687 0.324709,-0.08 0.972936,-0.0652 1.912882,-0.35453 2.736458,-0.84232 0.231834,-0.1373 0.499452,-0.32539 0.693131,-0.48714 0.445125,-0.37173 0.766464,-0.76451 0.986353,-1.20559 0.152841,-0.3066 0.237686,-0.59658 0.281177,-0.96107 0.01231,-0.10269 0.01231,-0.44967 1.72e-4,-0.55989 -0.04631,-0.41906 -0.177619,-0.80737 -0.394572,-1.16704 -0.18918,-0.31364 -0.46054,-0.6172 -0.655007,-0.73272 -0.185598,-0.11027 -0.366596,-0.0858 -0.620645,0.0841 -0.222885,0.14903 -0.617134,0.50782 -0.960708,0.87429 -0.909025,0.96956 -1.968601,1.79071 -3.157703,2.44714 -0.314096,0.17339 -0.908148,0.46191 -1.008246,0.48968 -0.06971,0.0194 -0.197634,0.0177 -0.265701,-0.003 -0.100986,-0.0314 -0.18119,-0.0837 -0.248228,-0.16196 -0.04247,-0.0496 -0.09251,-0.15108 -0.105263,-0.2134 -0.02341,-0.11494 -0.05246,-1.39948 -0.05246,-2.32003 0,-2.57371 0.165543,-5.22311 0.48321,-7.7335 0.390526,-3.08614 0.996734,-5.6178 1.866878,-7.79646 1.070341,-2.67989 2.51898,-4.81394 4.473397,-6.58996 0.372578,-0.33857 0.756264,-0.65395 1.235257,-1.01534 0.432161,-0.32605 0.819984,-0.6878 1.0589,-0.98769 0.335019,-0.42054 0.497212,-0.83421 0.482079,-1.22958 -0.0061,-0.16651 -0.034,-0.29324 -0.103195,-0.47415 -0.04469,-0.11673 -0.09342,-0.27942 -0.104638,-0.34926 -0.005,-0.0323 -0.0071,-0.0893 -0.005,-0.14347 0.003,-0.0759 0.0061,-0.0982 0.0227,-0.14241 0.05518,-0.14908 0.165824,-0.32252 0.282972,-0.44352 0.19941,-0.20593 0.472778,-0.34376 1.090144,-0.54964 0.477611,-0.15928 0.841775,-0.25961 1.538478,-0.42387 0.491361,-0.11586 0.69421,-0.17276 0.941318,-0.26411 0.432626,-0.1599 0.888233,-0.41847 1.228256,-0.69706 0.212444,-0.17407 0.456788,-0.4227 0.591419,-0.60182 0.09796,-0.13034 0.139625,-0.23416 0.139836,-0.34846 2.93e-4,-0.21712 -0.160689,-0.41041 -0.383988,-0.46072 -0.06527,-0.0147 -0.179525,-0.015 -0.234084,-7e-4 -0.09988,0.0263 -0.139302,0.0542 -0.320209,0.22649 -0.143217,0.13642 -0.271583,0.24259 -0.432273,0.35752 -0.573289,0.41001 -1.308086,0.77227 -2.265132,1.11671 -1.093544,0.39358 -2.0973,0.58807 -3.238341,0.62748 -0.682024,0.0235 -1.116929,-0.0449 -1.814671,-0.28585 -0.569103,-0.19649 -1.056307,-0.40803 -1.324702,-0.57516 -0.341687,-0.21279 -0.592155,-0.47466 -0.747155,-0.78119 -0.104981,-0.20759 -0.154525,-0.39683 -0.162152,-0.61937 -0.01463,-0.42485 0.151428,-0.79149 0.484359,-1.06976 0.214038,-0.1789 0.500905,-0.30634 0.852308,-0.37865 0.09342,-0.0192 0.29186,-0.0456 0.501923,-0.0668 0.327947,-0.033 0.467371,-0.056 0.630754,-0.10411 0.673075,-0.19817 1.288171,-0.6548 1.976803,-1.46755 0.205624,-0.24268 0.341597,-0.41348 0.737914,-0.92689 0.657216,-0.85138 0.920294,-1.1628 1.318709,-1.56099 0.30205,-0.30189 0.559287,-0.52147 0.885045,-0.75552 0.816261,-0.58643 1.741398,-0.98309 2.691655,-1.15407 0.583277,-0.10494 1.19684,-0.12168 1.79865,-0.049 0.877044,0.10581 1.738966,0.42258 2.446019,0.89894 0.313168,0.21098 0.546111,0.40443 0.83324,0.69194 0.351847,0.35231 0.610446,0.6825 0.859239,1.09711 0.504072,0.84 0.789536,1.79263 0.862668,2.87876 0.01009,0.14463 0.005,0.43234 -0.011,0.62288 -0.126591,1.5405 -0.722893,2.91088 -1.793758,4.12219 -0.12199,0.13799 -0.496213,0.51402 -0.63841,0.64149 -0.795853,0.7134 -1.724359,1.29585 -2.780293,1.74404 -0.396882,0.16846 -0.795337,0.30886 -1.243691,0.43822 -0.177588,0.0512 -0.212141,0.0685 -0.287512,0.14357 -0.09291,0.0925 -0.132634,0.18685 -0.132634,0.31469 0,0.0743 0.01281,0.12698 0.04873,0.19981 0.06497,0.13192 0.190007,0.22053 0.340174,0.24105 0.07627,0.0104 0.126106,0.002 0.303341,-0.0482 1.332329,-0.38148 2.598316,-1.00618 3.66908,-1.81051 0.295785,-0.22218 0.633548,-0.50651 0.833432,-0.70158 0.02986,-0.0291 0.05418,-0.0514 0.05418,-0.0496 0,0.002 -0.011,0.0469 -0.02451,0.10028 -0.08898,0.35252 -0.04469,0.64621 0.15733,1.04305 0.319736,0.62811 0.809906,1.24326 1.378928,1.7305 0.11283,0.0967 0.227819,0.18756 0.374435,0.29616 0.908208,0.67272 1.784809,1.48237 2.550829,2.35601 1.206747,1.37629 2.19528,2.98014 2.975909,4.8283 1.135512,2.68832 1.844351,5.87743 2.241555,10.08502 0.174955,1.85316 0.261061,3.58247 0.274085,5.50442 0.0071,1.01187 -0.02159,2.53092 -0.05014,2.66997 -0.01211,0.0593 -0.06194,0.16218 -0.101682,0.20997 -0.06487,0.078 -0.150127,0.13405 -0.251597,0.1654 -0.0685,0.0212 -0.196323,0.0228 -0.265933,0.003 -0.101037,-0.0281 -0.657761,-0.29829 -0.993819,-0.48231 -1.087441,-0.59543 -2.083197,-1.34604 -2.946602,-2.22112 -0.167782,-0.17006 -0.288047,-0.29715 -0.452601,-0.47832 -0.166954,-0.1838 -0.707597,-0.72335 -0.771982,-0.77041 -0.169134,-0.12365 -0.293727,-0.1342 -0.463466,-0.0392 -0.108633,0.0607 -0.20059,0.14035 -0.340377,0.29462 -0.245756,0.27123 -0.454053,0.5541 -0.552396,0.75018 -0.137062,0.27327 -0.229443,0.58447 -0.271976,0.91616 -0.01584,0.12332 -0.01796,0.47616 -0.004,0.59488 0.05892,0.48777 0.202002,0.88125 0.468238,1.28775 0.367988,0.56187 0.963886,1.08409 1.681492,1.47358 0.780235,0.4235 1.650318,0.67445 2.5475,0.73476 0.06356,0.004 0.135952,0.012 0.160972,0.017 0.162949,0.0334 0.293343,0.13516 0.361996,0.28248 0.06729,0.14433 0.05458,0.31771 -0.03309,0.45182 -0.04116,0.0628 -0.118721,0.13496 -0.180059,0.1672 -0.09171,0.0482 -0.619677,0.23098 -0.981683,0.33986 -1.173576,0.35299 -2.350633,0.564 -3.576306,0.64112 -0.5905,0.0371 -1.33708,0.0384 -1.910622,0.003 -0.684072,-0.0419 -1.365591,-0.12612 -1.954437,-0.24172 -0.985173,-0.1934 -1.756016,-0.48786 -2.395204,-0.91496 -0.567529,-0.37921 -1.057659,-0.89073 -1.389278,-1.44992 -0.03198,-0.0539 -0.06043,-0.10068 -0.06336,-0.10392 -0.003,-0.003 -0.01856,0.0172 -0.03491,0.0455 -0.373053,0.64587 -0.919114,1.20171 -1.581404,1.60974 -0.467936,0.28829 -1.035495,0.52066 -1.679666,0.68769 -0.769209,0.19945 -1.781651,0.33813 -2.788959,0.38203 -0.168548,0.007 -0.849644,0.014 -0.993798,0.0101 z m -1.768546,-8.38093 c 0.09554,-0.0241 0.196917,-0.0898 0.260172,-0.16852 0.07768,-0.0967 0.568569,-1.04422 0.918519,-1.77289 2.04489,-4.25795 3.271491,-8.90333 3.598924,-13.62983 0.04812,-0.69437 0.08727,-1.62433 0.07284,-1.72903 -0.02835,-0.20608 -0.173179,-0.3686 -0.377381,-0.42362 -0.05932,-0.0159 -0.175217,-0.0161 -0.241045,-2.7e-4 -0.158611,0.0381 -0.30557,0.172 -0.356356,0.32457 -0.02391,0.0717 -0.03006,0.13192 -0.03521,0.34114 -0.0228,0.92865 -0.10948,2.10723 -0.231622,3.14938 -0.53343,4.55175 -1.931657,8.99497 -4.097912,13.02217 -0.13221,0.24579 -0.142187,0.2734 -0.14251,0.39421 -2.93e-4,0.13652 0.03148,0.23037 0.111074,0.32679 0.126127,0.15292 0.323105,0.2157 0.520487,0.16589 z m 17.937611,0.003 c 0.138576,-0.0307 0.267265,-0.13315 0.332275,-0.26462 0.04066,-0.0822 0.05024,-0.1268 0.05004,-0.23157 -2.93e-4,-0.12077 -0.01029,-0.14837 -0.14248,-0.39419 -2.134557,-3.96959 -3.524693,-8.34309 -4.073528,-12.81571 -0.135539,-1.10457 -0.232006,-2.36541 -0.255946,-3.34535 -0.005,-0.21431 -0.012,-0.28148 -0.03511,-0.35089 -0.05105,-0.15337 -0.197805,-0.28721 -0.356608,-0.32527 -0.06406,-0.0153 -0.174087,-0.0153 -0.237756,7e-5 -0.164221,0.0396 -0.306428,0.17005 -0.359524,0.32969 -0.03077,0.0924 -0.03138,0.15217 -0.0081,0.73486 0.22346,5.59136 1.706602,11.09402 4.321776,16.0343 0.233055,0.44026 0.256016,0.47655 0.341496,0.53954 0.127781,0.0941 0.267688,0.12362 0.423475,0.0892 z m -8.624545,-0.38072 c 1.944721,-0.0669 3.822213,-0.48558 5.639547,-1.25756 0.186688,-0.0793 0.234235,-0.10643 0.290155,-0.16555 0.11056,-0.11691 0.16072,-0.26247 0.153507,-0.44549 -0.004,-0.11226 -0.01463,-0.15345 -0.06194,-0.2513 -0.03077,-0.0636 -0.04348,-0.0811 -0.09927,-0.13732 -0.05135,-0.0517 -0.07445,-0.0693 -0.116573,-0.0891 -0.06507,-0.0306 -0.11512,-0.0425 -0.178456,-0.0425 -0.068,0 -0.109803,0.0115 -0.230956,0.0635 -1.570861,0.67324 -3.206582,1.07525 -4.84655,1.19112 -0.413952,0.0292 -0.499734,0.032 -1.018304,0.032 -0.503911,0 -0.580755,-0.002 -0.969314,-0.0283 -1.640371,-0.11039 -3.276253,-0.50713 -4.853813,-1.17717 -0.164362,-0.0698 -0.201821,-0.0809 -0.272683,-0.0809 -0.113899,0 -0.201881,0.0394 -0.294847,0.13177 -0.05619,0.0559 -0.0682,0.0723 -0.09937,0.13675 -0.04812,0.0994 -0.05781,0.13906 -0.06215,0.25536 -0.004,0.11232 0.004,0.16928 0.04035,0.26229 0.03965,0.10291 0.124048,0.20774 0.205654,0.25557 0.07465,0.0438 0.618324,0.26551 0.952184,0.3884 0.227173,0.0836 0.6851,0.23626 0.920324,0.30678 1.320918,0.39599 2.657182,0.61287 4.031207,0.65426 0.170848,0.005 0.693897,0.004 0.871324,-0.002 z m -0.314933,-3.2014 c 0.164503,-0.0556 0.287038,-0.18699 0.330106,-0.35385 0.01564,-0.0607 0.01564,-0.17764 -1.52e-4,-0.23795 -0.05912,-0.22602 -0.254402,-0.37792 -0.485943,-0.37792 -0.192095,0 -0.363822,0.10898 -0.446689,0.28344 -0.137859,0.29031 0.02794,0.62828 0.343726,0.70055 0.0683,0.0156 0.190441,0.009 0.258952,-0.0142 z m -0.0344,-5.05688 c 0.146424,-0.0369 0.26446,-0.13353 0.329127,-0.26948 0.03481,-0.0731 0.04711,-0.12891 0.04711,-0.21346 0,-0.0845 -0.01231,-0.14033 -0.04711,-0.21346 -0.08091,-0.1701 -0.237241,-0.27304 -0.427884,-0.28174 -0.06335,-0.003 -0.08747,-8.9e-4 -0.134812,0.0111 -0.15159,0.0383 -0.269686,0.13381 -0.334777,0.27065 -0.03511,0.0738 -0.04732,0.12913 -0.04732,0.21347 0,0.0843 0.01231,0.13965 0.04732,0.21346 0.10149,0.21338 0.340739,0.32685 0.568346,0.2695 z m 0.03087,-5.07395 c 0.135014,-0.0456 0.238341,-0.13655 0.298266,-0.26254 0.03481,-0.0731 0.04711,-0.12891 0.04711,-0.21346 0,-0.0879 -0.01261,-0.14238 -0.05105,-0.22045 -0.05922,-0.12036 -0.159015,-0.20698 -0.291578,-0.25312 -0.04943,-0.0171 -0.06517,-0.0193 -0.149704,-0.0196 -0.08585,-3.1e-4 -0.100178,0.002 -0.156452,0.02 -0.284647,0.0933 -0.423899,0.41203 -0.298085,0.68231 0.05902,0.1268 0.163292,0.22033 0.292677,0.26252 0.07355,0.024 0.07708,0.0244 0.175853,0.0219 0.06709,-0.002 0.09806,-0.006 0.132977,-0.0177 z m -2.162573,-4.40913 c 0.04812,-0.0165 0.518862,-0.18082 1.046118,-0.36503 0.527245,-0.18421 0.962222,-0.33493 0.9666,-0.33493 0.0071,0 0.503992,0.17306 1.799911,0.62649 0.147302,0.0516 0.285676,0.0969 0.307478,0.10104 0.05559,0.0103 0.143801,0.009 0.201548,-0.003 0.02694,-0.006 0.07738,-0.0243 0.111972,-0.0416 0.109834,-0.0546 0.178173,-0.12306 0.230997,-0.23144 0.0565,-0.11601 0.05307,-0.0213 0.05095,-1.39973 l -0.002,-1.22477 -0.02189,-0.0613 c -0.03077,-0.0862 -0.06043,-0.13296 -0.125188,-0.19772 -0.06447,-0.0646 -0.13444,-0.10515 -0.224197,-0.1302 -0.06558,-0.0184 -0.173886,-0.0214 -0.234054,-0.007 -0.02119,0.005 -0.351857,0.11891 -0.734857,0.25271 -0.383,0.13381 -0.84581,0.29549 -1.028463,0.35929 l -0.332083,0.11601 -1.029149,-0.35933 c -0.566026,-0.19764 -1.046451,-0.36356 -1.067627,-0.36872 -0.05983,-0.0146 -0.168518,-0.0116 -0.233115,0.006 -0.168882,0.0471 -0.290559,0.16113 -0.350333,0.32819 l -0.02189,0.0613 -0.002,1.22476 c -0.002,1.37794 -0.0061,1.28353 0.05075,1.39973 0.05085,0.10478 0.124855,0.17896 0.231128,0.23162 0.08464,0.042 0.133884,0.0522 0.237947,0.0493 0.07768,-0.002 0.0906,-0.005 0.171475,-0.0324 z m 2.183567,-12.63559 c 0.26222,-0.0566 0.478992,-0.22187 0.598733,-0.4565 0.172301,-0.33764 0.102721,-0.74865 -0.171394,-1.0125 -0.335614,-0.32302 -0.861902,-0.32371 -1.196104,-0.002 -0.204494,0.19713 -0.298953,0.47384 -0.256924,0.75266 0.05458,0.36173 0.342434,0.65789 0.700254,0.72033 0.0231,0.004 0.04984,0.009 0.05952,0.0104 0.03733,0.007 0.215854,-0.002 0.265943,-0.0129 z"
       id="path3199"
       inkscape:connector-curvature="0"
       transform="matrix(1.08251,0,0,1.0719231,-2.608521,-18.91859)" />
  </g>
</svg>
